<svg width="20" height="19" viewBox="0 0 20 19" fill="none" xmlns="http://www.w3.org/2000/svg">
<path d="M16.293 1.293L15.207 2.379L14.121 1.293C14.0282 1.20005 13.918 1.12632 13.7967 1.07601C13.6754 1.0257 13.5453 0.999799 13.414 0.999799C13.2827 0.999799 13.1526 1.0257 13.0313 1.07601C12.91 1.12632 12.7998 1.20005 12.707 1.293L11.458 2.542C10.5122 2.18532 9.50986 2.00173 8.499 2C3.813 2 0 5.813 0 10.5C0 15.187 3.813 19 8.499 19C13.185 19 16.999 15.187 16.999 10.5C16.9984 9.59796 16.8529 8.70187 16.568 7.846L17.914 6.5C18.0069 6.40721 18.0807 6.29701 18.131 6.17569C18.1813 6.05438 18.2072 5.92433 18.2072 5.793C18.2072 5.66167 18.1813 5.53162 18.131 5.41031C18.0807 5.28899 18.0069 5.17879 17.914 5.086L16.621 3.793L17.711 2.703C17.94 2.474 18.556 2 19 2H20V0H19C17.6 0 16.416 1.167 16.293 1.293ZM8.499 7C7.564 7 6.686 7.364 6.024 8.025C5.69829 8.34945 5.4401 8.73523 5.26435 9.16004C5.08859 9.58485 4.99874 10.0403 5 10.5H3C3 9.032 3.571 7.651 4.609 6.612C5.11855 6.09937 5.72475 5.69293 6.39248 5.41623C7.06021 5.13952 7.77621 4.99805 8.499 5V7Z" fill="#1B1814"/>
</svg>
