<svg width="16" height="13" viewBox="0 0 16 13" fill="none" xmlns="http://www.w3.org/2000/svg">
<path d="M-5.96045e-08 6.5C0.00489229 6.67757 0.0684933 6.83991 0.20548 6.97182L4.01174 10.8275C4.11937 10.9391 4.25636 11 4.41781 11C4.7407 11 5 10.7362 5 10.4014C5 10.239 4.9364 10.0817 4.82387 9.96505L1.39432 6.50507L4.82387 3.03495C4.93151 2.91826 5 2.76607 5 2.59865C5 2.26381 4.7407 2 4.41781 2C4.25636 2 4.11937 2.06088 4.01174 2.17249L0.20548 6.03326C0.0684933 6.17024 -5.96045e-08 6.32244 -5.96045e-08 6.5Z" fill="white"/>
<path d="M16 6.5C15.9951 6.32243 15.9315 6.16009 15.7945 6.02818L11.9883 2.17249C11.8806 2.06088 11.7436 2 11.5822 2C11.2593 2 11 2.26381 11 2.59865C11 2.76099 11.0636 2.91826 11.1761 3.03495L14.6057 6.49493L11.1761 9.96505C11.0685 10.0817 11 10.2339 11 10.4014C11 10.7362 11.2593 11 11.5822 11C11.7436 11 11.8806 10.9391 11.9883 10.8275L15.7945 6.96674C15.9315 6.82976 16 6.67756 16 6.5Z" fill="white"/>
<path d="M9.50006 1.5L6.50006 11.5" stroke="white" stroke-width="1.2" stroke-linecap="round"/>
</svg>
