<svg width="16" height="20" viewBox="0 0 16 20" fill="none" xmlns="http://www.w3.org/2000/svg">
<path d="M13.2207 15.4141H13.4543C14.8932 15.4141 15.8499 14.6231 15.8499 12.9356V5.83153H11.6161C10.8552 5.83153 10.3806 5.35692 10.3806 4.59603V0.106079H6.3276C4.7531 0.106079 3.88675 0.964896 3.88675 2.52433V2.8784H5.04691C6.22967 2.8784 7.08848 3.15714 7.9247 3.98582L12.2037 8.26484C13.0173 9.07846 13.2207 10.0126 13.2207 11.1351V15.4141ZM11.827 4.81451H15.7294C15.6917 4.55837 15.5034 4.32483 15.2171 4.03102L12.1736 0.912162C11.8948 0.625889 11.6538 0.437552 11.3976 0.407418L11.4052 4.3851C11.4052 4.68644 11.5257 4.81451 11.827 4.81451ZM2.60606 19.2863H9.6574C11.2696 19.2863 12.1133 18.435 12.1133 16.8078V10.9694H6.74194C5.78519 10.9694 5.31812 10.4948 5.31812 9.538V3.97829H2.60606C0.993897 3.97829 0.150146 4.83711 0.150146 6.46434V16.8078C0.150146 18.4426 0.993897 19.2863 2.60606 19.2863ZM6.83235 9.86194H11.9777C11.8873 9.538 11.6914 9.22913 11.3524 8.88259L7.38229 4.85217C7.03575 4.50563 6.74194 4.27209 6.418 4.17416V9.4476C6.418 9.7188 6.56114 9.86194 6.83235 9.86194Z" fill="white"/>
</svg>
