<svg width="18" height="18" viewBox="0 0 18 18" fill="none" xmlns="http://www.w3.org/2000/svg">
<path d="M8.9934 16.5459C8.83743 16.5459 8.68147 16.5327 8.53851 16.5195L8.1486 17.218C8.03163 17.4684 7.78469 17.6134 7.51176 17.5607C7.23882 17.5211 7.03087 17.3103 6.99188 17.0203L6.88791 16.2296C6.58898 16.1373 6.30305 16.0187 6.01712 15.9133L5.44525 16.4273C5.23731 16.6381 4.95137 16.6645 4.70443 16.5327C4.45749 16.3877 4.35352 16.1373 4.40551 15.8474L4.57447 15.0566C4.30153 14.8589 4.05459 14.6481 3.87263 14.4636L3.14481 14.7667C2.87188 14.8853 2.61194 14.8194 2.41699 14.569C2.24803 14.3845 2.22203 14.0945 2.352 13.8441L2.7809 13.1588C2.61194 12.8821 2.46897 12.6317 2.33901 12.3417L1.5332 12.3812C1.27326 12.3944 1.02632 12.2363 0.935344 11.9727C0.844366 11.7091 0.935344 11.4323 1.14329 11.261L1.76714 10.7602C1.68916 10.4307 1.63717 10.1276 1.59818 9.82449L0.857363 9.58726C0.584429 9.49501 0.428467 9.28414 0.428467 8.9942C0.428467 8.71743 0.584429 8.49339 0.857363 8.40113L1.59818 8.16391C1.63717 7.86079 1.68916 7.57084 1.76714 7.22819L1.14329 6.72738C0.922347 6.52969 0.844366 6.27928 0.948341 6.02888C1.02632 5.75212 1.27326 5.59397 1.5462 5.62032L2.33901 5.64668C2.46897 5.3831 2.61194 5.09316 2.7939 4.82957L2.365 4.13108C2.22203 3.89385 2.24803 3.60391 2.42998 3.4194C2.61194 3.19535 2.85888 3.11628 3.13181 3.22171L3.87263 3.52483C4.06759 3.32715 4.31453 3.12946 4.57447 2.93177L4.40551 2.1542C4.35352 1.85108 4.48349 1.60067 4.70443 1.46888C4.95137 1.32391 5.23731 1.36345 5.44525 1.57431L6.01712 2.07512C6.30305 1.96969 6.58898 1.85108 6.88791 1.75882L6.99188 0.954891C7.03087 0.691307 7.23882 0.48044 7.49876 0.440902C7.78469 0.388185 8.03163 0.506798 8.1486 0.757203L8.53851 1.46888C8.68147 1.46888 8.85043 1.4557 8.9934 1.4557C9.16236 1.4557 9.30532 1.46888 9.46128 1.46888L9.8252 0.757203C9.94217 0.533157 10.2151 0.388185 10.488 0.440902C10.748 0.48044 10.9429 0.691307 10.9819 0.954891L11.0989 1.772C11.3978 1.85108 11.6837 1.96969 11.9697 2.07512L12.5415 1.57431C12.7495 1.35027 13.0354 1.32391 13.2824 1.46888C13.5163 1.60067 13.6203 1.85108 13.5813 2.1542L13.3993 2.93177C13.6593 3.12946 13.9062 3.32715 14.1142 3.52483L14.855 3.22171C15.1149 3.11628 15.3749 3.19535 15.5698 3.4194C15.7258 3.61709 15.7648 3.90703 15.6218 4.14425L15.1929 4.82957C15.3489 5.0668 15.4918 5.33038 15.6478 5.64668L16.4406 5.62032C16.7135 5.59397 16.9735 5.75212 17.0515 6.04206C17.1424 6.29246 17.0644 6.54287 16.8435 6.72738L16.2197 7.22819C16.2846 7.53131 16.3496 7.83443 16.3886 8.16391L17.1294 8.40113C17.4024 8.49339 17.5713 8.71743 17.5713 8.9942C17.5713 9.28414 17.4154 9.49501 17.1294 9.58726L16.3886 9.82449C16.3496 10.1671 16.2846 10.4703 16.2197 10.7602L16.8435 11.261C17.0644 11.4323 17.1424 11.6959 17.0515 11.9727C16.9735 12.2363 16.7265 12.3944 16.4536 12.3812L15.6478 12.3417C15.5178 12.6317 15.3619 12.8952 15.1929 13.1588L15.6218 13.8441C15.7648 14.0814 15.7518 14.3713 15.5828 14.569C15.3749 14.8194 15.1149 14.8853 14.855 14.7667L14.1142 14.4636C13.9192 14.6481 13.6853 14.8589 13.3993 15.0566L13.5813 15.8474C13.6203 16.1373 13.5163 16.3877 13.2824 16.5327C13.0224 16.6645 12.7495 16.625 12.5415 16.4273L11.9827 15.9133C11.6837 16.0187 11.3978 16.1373 11.0989 16.2164L10.9819 17.0335C10.9429 17.3103 10.748 17.5211 10.488 17.5607C10.2021 17.6134 9.94217 17.4684 9.8252 17.218L9.46128 16.5195C9.30532 16.5327 9.14936 16.5459 8.9934 16.5459ZM8.9934 3.06356C8.1616 3.06356 7.38179 3.23489 6.66696 3.55119L8.5645 6.83281C8.73346 6.80645 8.87643 6.79327 8.9804 6.79327C9.89018 6.79327 10.644 7.32044 11.0339 8.26934H14.712C14.3871 5.30402 11.9957 3.06356 8.9934 3.06356ZM3.22279 9.00738C3.22279 10.9052 4.06759 12.5789 5.38027 13.6596L7.3428 10.4044C6.97888 9.96946 6.80993 9.50819 6.80993 9.02056C6.80993 8.51975 6.97888 8.0453 7.3428 7.61038L5.44525 4.28923C4.09358 5.3831 3.22279 7.07003 3.22279 9.00738ZM8.22658 9.00738C8.22658 9.42911 8.5775 9.78495 8.9804 9.78495C9.42229 9.78495 9.76021 9.42911 9.76021 9.00738C9.76021 8.59882 9.42229 8.26934 8.9804 8.26934C8.5775 8.26934 8.22658 8.612 8.22658 9.00738ZM8.9934 14.938C11.9957 14.938 14.3871 12.6844 14.712 9.71905H11.0469C10.657 10.6943 9.89018 11.2347 8.9804 11.2347C8.87643 11.2347 8.73346 11.2347 8.5515 11.1951L6.60198 14.424C7.3298 14.7535 8.1356 14.938 8.9934 14.938Z" fill="white"/>
</svg>
