<svg width="96" height="17" viewBox="0 0 96 17" fill="none" xmlns="http://www.w3.org/2000/svg">
<path d="M7.896 4.198V16H4.305V4.198H0.105V1.132H12.096V4.198H7.896ZM13.7351 16V1.132H23.7311V4.177H17.2001V6.97H23.3741V9.847H17.2001V12.934H24.1091V16H13.7351ZM41.989 8.503C41.989 9.679 41.786 10.757 41.38 11.737C40.974 12.703 40.407 13.536 39.679 14.236C38.965 14.922 38.111 15.454 37.117 15.832C36.123 16.21 35.045 16.399 33.883 16.399C32.721 16.399 31.643 16.21 30.649 15.832C29.669 15.454 28.815 14.922 28.087 14.236C27.373 13.536 26.813 12.703 26.407 11.737C26.001 10.757 25.798 9.679 25.798 8.503C25.798 7.313 26.001 6.242 26.407 5.29C26.813 4.324 27.373 3.505 28.087 2.833C28.815 2.161 29.669 1.643 30.649 1.279C31.643 0.914999 32.721 0.732999 33.883 0.732999C35.045 0.732999 36.123 0.914999 37.117 1.279C38.111 1.643 38.965 2.161 39.679 2.833C40.407 3.505 40.974 4.324 41.38 5.29C41.786 6.242 41.989 7.313 41.989 8.503ZM38.146 8.503C38.146 7.859 38.041 7.257 37.831 6.697C37.621 6.137 37.327 5.661 36.949 5.269C36.585 4.863 36.137 4.548 35.605 4.324C35.087 4.086 34.513 3.967 33.883 3.967C33.253 3.967 32.679 4.086 32.161 4.324C31.643 4.548 31.195 4.863 30.817 5.269C30.439 5.661 30.145 6.137 29.935 6.697C29.739 7.257 29.641 7.859 29.641 8.503C29.641 9.175 29.746 9.798 29.956 10.372C30.166 10.932 30.453 11.415 30.817 11.821C31.195 12.227 31.643 12.549 32.161 12.787C32.679 13.011 33.253 13.123 33.883 13.123C34.513 13.123 35.087 13.011 35.605 12.787C36.123 12.549 36.571 12.227 36.949 11.821C37.327 11.415 37.621 10.932 37.831 10.372C38.041 9.798 38.146 9.175 38.146 8.503ZM62.6863 13.942C62.0283 14.698 61.2163 15.3 60.2503 15.748C59.2843 16.182 58.1713 16.399 56.9113 16.399C55.7633 16.399 54.6993 16.21 53.7193 15.832C52.7533 15.454 51.9133 14.922 51.1993 14.236C50.4853 13.536 49.9253 12.703 49.5193 11.737C49.1133 10.771 48.9103 9.707 48.9103 8.545C48.9103 7.355 49.1133 6.277 49.5193 5.311C49.9393 4.345 50.5133 3.526 51.2413 2.854C51.9693 2.168 52.8233 1.643 53.8033 1.279C54.7833 0.914999 55.8403 0.732999 56.9743 0.732999C58.0243 0.732999 59.0533 0.921999 60.0613 1.3C61.0833 1.664 61.9093 2.203 62.5393 2.917L60.1033 5.353C59.7673 4.891 59.3263 4.548 58.7803 4.324C58.2343 4.1 57.6743 3.988 57.1003 3.988C56.4703 3.988 55.8893 4.107 55.3573 4.345C54.8393 4.569 54.3913 4.884 54.0133 5.29C53.6353 5.696 53.3413 6.179 53.1313 6.739C52.9213 7.285 52.8163 7.887 52.8163 8.545C52.8163 9.217 52.9213 9.833 53.1313 10.393C53.3413 10.953 53.6283 11.436 53.9923 11.842C54.3703 12.234 54.8183 12.542 55.3363 12.766C55.8543 12.99 56.4213 13.102 57.0373 13.102C57.7513 13.102 58.3743 12.962 58.9063 12.682C59.4383 12.402 59.8653 12.038 60.1873 11.59L62.6863 13.942ZM72.1844 16L68.9714 10.099H67.7534V16H64.2254V1.132H69.8954C70.6094 1.132 71.3024 1.209 71.9744 1.363C72.6604 1.503 73.2694 1.748 73.8014 2.098C74.3474 2.448 74.7814 2.91 75.1034 3.484C75.4254 4.058 75.5864 4.772 75.5864 5.626C75.5864 6.634 75.3134 7.481 74.7674 8.167C74.2214 8.853 73.4654 9.343 72.4994 9.637L76.3844 16H72.1844ZM72.0374 5.689C72.0374 5.339 71.9604 5.059 71.8064 4.849C71.6664 4.625 71.4774 4.457 71.2394 4.345C71.0154 4.219 70.7564 4.135 70.4624 4.093C70.1824 4.051 69.9094 4.03 69.6434 4.03H67.7324V7.495H69.4334C69.7274 7.495 70.0284 7.474 70.3364 7.432C70.6444 7.376 70.9244 7.285 71.1764 7.159C71.4284 7.033 71.6314 6.851 71.7854 6.613C71.9534 6.375 72.0374 6.067 72.0374 5.689ZM91.6322 16L91.7162 5.479H91.6532L87.7892 16H85.2692L81.5102 5.479H81.4472L81.5312 16H78.1502V1.132H83.2532L86.6342 10.666H86.7182L89.9522 1.132H95.1392V16H91.6322Z" fill="#FEAC0D"/>
</svg>
