<svg width="16" height="18" viewBox="0 0 16 18" fill="none" xmlns="http://www.w3.org/2000/svg">
<path d="M4.54222 17.5159H11.4655C12.6256 17.5159 13.3715 16.8153 13.4317 15.6552L13.9365 4.80695H14.7652C15.1494 4.80695 15.4432 4.50561 15.4432 4.12894C15.4432 3.75227 15.1418 3.46599 14.7652 3.46599H11.4203V2.33597C11.4203 1.17582 10.682 0.497803 9.42392 0.497803H6.56119C5.3031 0.497803 4.56482 1.17582 4.56482 2.33597V3.46599H1.23502C0.858346 3.46599 0.557007 3.7598 0.557007 4.12894C0.557007 4.51315 0.858346 4.80695 1.23502 4.80695H2.0637L2.56845 15.6552C2.62871 16.8229 3.367 17.5159 4.54222 17.5159ZM5.97358 2.40377C5.97358 2.01957 6.24479 1.77096 6.65913 1.77096H9.32598C9.74032 1.77096 10.0115 2.01957 10.0115 2.40377V3.46599H5.97358V2.40377ZM4.69289 16.1674C4.27855 16.1674 3.97721 15.8586 3.95461 15.4141L3.44986 4.80695H12.5277L12.038 15.4141C12.023 15.8661 11.7292 16.1674 11.2998 16.1674H4.69289ZM5.77771 14.9546C6.10165 14.9546 6.30505 14.7511 6.29752 14.4498L6.07152 6.56979C6.06398 6.26845 5.85305 6.07258 5.54417 6.07258C5.22777 6.07258 5.02436 6.27598 5.0319 6.57732L5.2579 14.4573C5.26543 14.7587 5.47637 14.9546 5.77771 14.9546ZM8.00009 14.9546C8.31649 14.9546 8.53497 14.7587 8.53497 14.4573V6.57732C8.53497 6.27598 8.31649 6.07258 8.00009 6.07258C7.68368 6.07258 7.47274 6.27598 7.47274 6.57732V14.4573C7.47274 14.7587 7.68368 14.9546 8.00009 14.9546ZM10.2225 14.9621C10.5238 14.9621 10.7347 14.7587 10.7423 14.4573L10.9683 6.57732C10.9758 6.27598 10.7724 6.08011 10.456 6.08011C10.1471 6.08011 9.93619 6.27598 9.92866 6.57732L9.70266 14.4573C9.69512 14.7511 9.89853 14.9621 10.2225 14.9621Z" fill="white"/>
</svg>
